# xmcd CD database file
#
# Track frame offsets:
#	150
#	91500
#	185675
#
# Disc length: 3411 seconds
#
# Revision: 0
# Processed by: cddbd v1.5.2PL0 Copyright (c) Steve Scherf et al.
# Submitted via: CDex 1.51
#
DISCID=190d5103
DTITLE=Call Boys Inc. - Call Boys Inc.
DYEAR=1988
DGENRE=Jazz
TTITLE0=Take A
TTITLE1=Take B
TTITLE2=Bonus Track
EXTD=YEAR: 1988
EXTT0=
EXTT1=
EXTT2=
PLAYORDER=
